<svg xmlns="http://www.w3.org/2000/svg" width="21" height="21" viewBox="0 0 21 21">
  <path id="minus-square" d="M5.062,43.813A.564.564,0,0,1,4.5,43.25v-1.5a.564.564,0,0,1,.563-.562H15.938a.564.564,0,0,1,.563.563v1.5a.564.564,0,0,1-.562.563ZM21,34.25v16.5A2.251,2.251,0,0,1,18.75,53H2.25A2.251,2.251,0,0,1,0,50.75V34.25A2.251,2.251,0,0,1,2.25,32h16.5A2.251,2.251,0,0,1,21,34.25ZM18.75,50.469V34.531a.282.282,0,0,0-.281-.281H2.531a.282.282,0,0,0-.281.281V50.469a.282.282,0,0,0,.281.281H18.469A.282.282,0,0,0,18.75,50.469Z" transform="translate(0 -32)" fill="#ffb51f"/>
</svg>
