<svg xmlns="http://www.w3.org/2000/svg" width="69.999" height="48.999" viewBox="0 0 69.999 48.999">
  <path id="users" d="M10.5,53a7,7,0,1,0-7-7A7.006,7.006,0,0,0,10.5,53Zm49,0a7,7,0,1,0-7-7A7.006,7.006,0,0,0,59.5,53ZM63,56.5H56a6.979,6.979,0,0,0-4.933,2.034A16,16,0,0,1,59.281,70.5H66.5A3.5,3.5,0,0,0,70,67V63.5A7.006,7.006,0,0,0,63,56.5Zm-28,0A12.25,12.25,0,1,0,22.75,44.25,12.244,12.244,0,0,0,35,56.5ZM43.4,60h-.908a16.913,16.913,0,0,1-14.984,0H26.6A12.6,12.6,0,0,0,14,72.6v3.15A5.251,5.251,0,0,0,19.25,81h31.5A5.251,5.251,0,0,0,56,75.749V72.6A12.6,12.6,0,0,0,43.4,60ZM18.933,58.534A6.979,6.979,0,0,0,14,56.5H7a7.006,7.006,0,0,0-7,7V67a3.5,3.5,0,0,0,3.5,3.5h7.208a16.039,16.039,0,0,1,8.225-11.965Z" transform="translate(0 -32)" fill="#fff"/>
</svg>
