<svg xmlns="http://www.w3.org/2000/svg" width="90" height="70" viewBox="0 0 90 70">
  <path id="cc-paypal" d="M29.109,67.344A3.353,3.353,0,0,1,25.672,70.7a2.258,2.258,0,0,1-2.5-2.344,3.388,3.388,0,0,1,3.391-3.437A2.346,2.346,0,0,1,29.109,67.344ZM12.578,59.766h-.734a.49.49,0,0,0-.5.422l-.672,4.172,1.281-.047c1.719,0,3.047-.234,3.359-2.219C15.672,60,14.344,59.766,12.578,59.766Zm44.375,0h-.7a.46.46,0,0,0-.5.422l-.656,4.172,1.25-.047c2.031,0,3.437-.469,3.437-2.813C59.766,59.844,58.281,59.766,56.953,59.766ZM90,39.5v55a7.5,7.5,0,0,1-7.5,7.5H7.5A7.5,7.5,0,0,1,0,94.5v-55A7.5,7.5,0,0,1,7.5,32h75A7.5,7.5,0,0,1,90,39.5ZM20.047,60.656c0-3.281-2.531-4.375-5.422-4.375H8.375a.826.826,0,0,0-.813.734L5,72.969a.538.538,0,0,0,.5.625H8.469a1,1,0,0,0,.859-.891l.7-4.156c.156-1.125,2.062-.734,2.813-.734,4.469,0,7.2-2.656,7.2-7.156ZM33.2,62.031H30.234c-.594,0-.625.859-.656,1.281-.906-1.328-2.219-1.562-3.7-1.562a6.972,6.972,0,0,0-6.75,7.063,4.664,4.664,0,0,0,4.953,5.031,6.085,6.085,0,0,0,4.141-1.859,4.176,4.176,0,0,0-.156.969c0,.359.156.625.5.625H31.25c.422,0,.781-.453.859-.891L33.7,62.641A.532.532,0,0,0,33.2,62.031Zm6.328,15.3,9.953-14.469a.321.321,0,0,0,.078-.266.558.558,0,0,0-.5-.547h-3a.884.884,0,0,0-.7.391l-4.141,6.094L39.5,62.672a.948.948,0,0,0-.859-.625H35.719a.558.558,0,0,0-.5.547c0,.188,3.047,8.875,3.313,9.7-.422.594-3.2,4.469-3.2,4.938a.5.5,0,0,0,.5.5h3A.92.92,0,0,0,39.531,77.328ZM64.422,60.656c0-3.281-2.531-4.375-5.422-4.375H52.8a.861.861,0,0,0-.859.734L49.406,72.953a.557.557,0,0,0,.5.625h3.2a.67.67,0,0,0,.625-.5l.7-4.531c.156-1.125,2.063-.734,2.813-.734,4.437,0,7.172-2.656,7.172-7.156Zm13.156,1.375H74.609c-.594,0-.625.859-.672,1.281-.859-1.328-2.187-1.562-3.7-1.562a6.972,6.972,0,0,0-6.75,7.063,4.664,4.664,0,0,0,4.953,5.031,5.907,5.907,0,0,0,4.141-1.859,6.943,6.943,0,0,0-.156.969c0,.359.156.625.5.625h2.7c.422,0,.781-.453.859-.891l1.594-10.047A.532.532,0,0,0,77.578,62.031ZM85,56.828a.525.525,0,0,0-.5-.547H81.609a.518.518,0,0,0-.5.422l-2.531,16.25-.047.078a.553.553,0,0,0,.547.547h2.578a.968.968,0,0,0,.813-.891L85,56.875ZM70.937,64.922a3.378,3.378,0,0,0-3.391,3.437A2.291,2.291,0,0,0,70.078,70.7a3.332,3.332,0,0,0,3.391-3.359A2.326,2.326,0,0,0,70.937,64.922Z" transform="translate(0 -32)"/>
</svg>
