<svg xmlns="http://www.w3.org/2000/svg" width="66.887" height="70" viewBox="0 0 66.887 70">
  <path id="mailchimp" d="M66.654,77.582A3.683,3.683,0,0,0,64.1,75.57a10.558,10.558,0,0,0-.967-2.755c.2-.231.4-.464.444-.519,1.628-2.02.566-4.978-2.217-5.677a15.269,15.269,0,0,0-4.147-2.8c-1.116-.558-.67-.339-1.717-.811-.278-1.361-.37-4.527-.813-6.749a6.988,6.988,0,0,0-2.431-4.4,9.776,9.776,0,0,0-2.02-2.939c3.881-5.95,4.9-11.827,2.061-14.905A7.078,7.078,0,0,0,46.9,32c-3.166,0-7.06,1.291-10.991,3.678l-2.614-2.1C22.342,24.951-8.628,63.06,2.3,71.388l2.822,2.156a10.027,10.027,0,0,0,5.827,12.689,9.052,9.052,0,0,0,3.642.548S22.89,102,40.392,102c20.247.006,25.4-19.8,25.454-19.979C65.846,82.023,67.486,79.6,66.654,77.582ZM3.146,68.868C.927,65.124,4.788,57.432,7.535,53.06c6.789-10.8,18.089-19.332,23.221-18.114l1.411-.541,3.859,3.261a23.9,23.9,0,0,1,9.188-3.538,24.215,24.215,0,0,0-7.039,3.127,87.353,87.353,0,0,0-10.536,8.363c-2.164,2.145-10.852,12.564-10.844,12.555a41.624,41.624,0,0,1,5.147-7.641c1.422-1.788,2.939-3.527,4.491-5.131.72-.745,1.45-1.463,2.18-2.142.5-.467,1.006-.917,1.508-1.347.231-.2.463-.391.692-.58l0,0-5.092-4.2.269,1.884,3.7,3.261s-3.275,2.2-4.9,3.6c-6.53,5.572-12.938,14.125-15.322,22.452l.114,0a10.614,10.614,0,0,0-3.4,3.133,20.577,20.577,0,0,1-3.038-2.578Zm10.8,15.639a7.466,7.466,0,0,1,0-14.913,6.77,6.77,0,0,1,2.85.628s1.5.759,1.928,4.345a17.294,17.294,0,0,0,.663-2.041,12.9,12.9,0,0,1,.661,4.806,9.838,9.838,0,0,0,.867-1.6A7.352,7.352,0,0,1,13.945,84.507Zm8.719-26.333A26.812,26.812,0,0,1,32.4,48.553a10.355,10.355,0,0,0-1.931.1,12.416,12.416,0,0,1,5.036-2.061,5.267,5.267,0,0,0-2.084-.378,3.3,3.3,0,0,0-.347,0,11.113,11.113,0,0,1,6.664-.867,3.19,3.19,0,0,0-1.511-.861c-.044-.013-.238-.061-.238-.061l.186-.044a8.639,8.639,0,0,1,4.609.577,3.716,3.716,0,0,0-.827-1.053c-.03-.028-.2-.152-.2-.152A10.987,10.987,0,0,1,45.62,45.4a5.264,5.264,0,0,0-.733-.983A5.778,5.778,0,0,1,48.474,47.2c.016.031.058.147.062.161-2.609-2.006-10.225-1.438-17.85,3.5a31.533,31.533,0,0,0-8.022,7.31ZM63.808,81.04a18.051,18.051,0,0,1-6.541,9.689c-6.933,5.447-16.041,4.9-19.48,1.844A11.154,11.154,0,0,1,35.154,88.4s-.208,1.386-.244,1.93a10.8,10.8,0,0,1-1.269-5.238s-.739,1.38-1.078,2.152a10.555,10.555,0,0,1-.494-5.278l-.806,1.2a12.865,12.865,0,0,1,.55-5.386,12.127,12.127,0,0,1,3.3-4.753,12.329,12.329,0,0,1-3.147-1.8,4.849,4.849,0,0,0,1.134-.062,9.277,9.277,0,0,1-3.472-5.353,7.41,7.41,0,0,0,1.327,1.127,11.439,11.439,0,0,1-.2-4.588l0,0a6.766,6.766,0,0,1,6.788-5.824c3.522.031,5.883.77,8.836-1.953a4.163,4.163,0,0,1,2-1.267,2.51,2.51,0,0,1,.792-.117,2.6,2.6,0,0,1,1.355.358c1.6.953,1.947,3.439,2.119,5.263.636,6.763.38,5.558,3.116,6.952a13.546,13.546,0,0,1,4.442,3.081l.012.014h.02C61.65,68.89,62.375,70,61.727,70.8,57,76.445,50.4,79.146,43.053,79.373l-.991.023c-2.97.091-3.936,3.931-2.073,6.242,1.178,1.461,3.442,1.941,5.308,1.947l.027-.009c8.039.163,16.116-5.527,17.511-8.663.009-.023.1-.222.1-.222-.323.38-8.153,7.752-17.669,7.485a11.279,11.279,0,0,1-2.02-.25,3.142,3.142,0,0,1-2.648-2.156,15.308,15.308,0,0,0,2.949.259c6.869,0,11.817-3.122,11.3-3.164a.351.351,0,0,0-.075.012c-.8.186-9.058,3.384-14.277,1.744a2.517,2.517,0,0,1,.075-.453c.464-1.555,1.289-1.338,2.624-1.4a28.849,28.849,0,0,0,11.485-2.723,22.023,22.023,0,0,0,6.255-4.284,9.341,9.341,0,0,1,1.088,4.206,3.325,3.325,0,0,1,1-.15C64.791,77.823,65.158,79.42,63.808,81.04ZM40.481,83.181c0-.008,0-.016,0-.023A.118.118,0,0,1,40.481,83.181Zm0-.033c0-.02,0-.041,0-.061,0-.1,0-.208,0-.316,0,.116,0,.222,0,.316C40.478,83.107,40.478,83.129,40.48,83.148Zm.019.228a.02.02,0,0,0,0,.009A.02.02,0,0,0,40.5,83.376Zm0,.019a1.427,1.427,0,0,0,.086.375A1.374,1.374,0,0,1,40.5,83.395ZM30.309,36.325l.448-1.38.763,2.769-.942-.3-.269-1.084Zm3.5,2.769-.566-1.967L34.8,38.433C34.448,38.658,34.117,38.88,33.806,39.094ZM40.48,83.148c0-.02,0-.041,0-.061C40.478,83.107,40.478,83.129,40.48,83.148Zm0-.061c0-.1,0-.208,0-.316C40.473,82.889,40.473,82.993,40.478,83.087Zm0,.094c0-.008,0-.016,0-.023m.02.228a.02.02,0,0,0,0-.009m0,.019a1.427,1.427,0,0,0,.086.375A1.374,1.374,0,0,1,40.5,83.395Zm8.141-21.658c-.011-.525.073-1.394.567-1.555h0c.845-.294,1.966,1.872,2.017,3.794a4.237,4.237,0,0,0-2.261-.406A6.557,6.557,0,0,1,48.642,61.737ZM32.093,40.324,29.97,38.545l3.214.981C32.77,39.82,32.4,40.089,32.093,40.324Zm4.328,26.085a3.483,3.483,0,0,1-1.094.334c-.3-.044-.009-.586.638-1.111a4.814,4.814,0,0,1,4.614-.792,3.986,3.986,0,0,1,1.813,1.311c.148.217.189.381.128.45-.12.141-.548-.048-1.18-.3a6.028,6.028,0,0,0-4.919.1Zm2.273,2.27c-.361.147-.6.259-.691.183s0-.378.336-.7a2.889,2.889,0,0,1,.948-.589,1.24,1.24,0,0,1,.172-.059,4.409,4.409,0,0,1,.5-.125c1.425-.242,2.469.548,2.333.778-.061.108-.325.083-.719.056a5.809,5.809,0,0,0-2.884.461ZM9.512,77.489Zm3.8-4.028a3.2,3.2,0,0,0-.413.106,1.093,1.093,0,0,0-.12.039c-.091.042-.173.07-.253.114a3.33,3.33,0,0,0-1.1.856,4.116,4.116,0,0,0-.811,2.761,4,4,0,0,0,.367,1.6c.216.462-.289.558-.748.061l0,0a3.308,3.308,0,0,1-.719-1.509,4.453,4.453,0,0,1,2.752-5.245c.125-.05.272-.08.391-.114h0a4.9,4.9,0,0,1,1.886-.1,3.742,3.742,0,0,1,2.239,1.2l0,0a2.343,2.343,0,0,1,.639,1.645v0c-.02.234-.123.57-.334.658a.189.189,0,0,1-.213-.039c-.153-.15-.034-.458-.406-.984A3.017,3.017,0,0,0,13.309,73.46Zm4.731,4.87a2.7,2.7,0,0,1-2.425,3.234c-1.042.023-1.611-.628-1.509-.77.047-.067.206-.037.45,0a1.944,1.944,0,0,0,2.328-1.452,2.122,2.122,0,0,0,.053-.4,1.68,1.68,0,0,0-.025-.4c-.156-.878-1.164-1.044-1.813-1.742a1.363,1.363,0,0,1-.1-1.83c.439-.433,1.067-.275,1.059-.122,0,.081-.152.142-.339.272a.5.5,0,0,0-.214.622.652.652,0,0,0,.263.378c.544.431,2.008.734,2.273,2.208ZM51.3,65.6c.4.063.659.561.573,1.114s-.483.95-.886.886-.659-.561-.573-1.114S50.9,65.538,51.3,65.6Zm-4.427,1.611a1.2,1.2,0,1,1,.6,1.281A1.026,1.026,0,0,1,46.875,67.212Z" transform="translate(-0.003 -32)"/>
</svg>
