<svg xmlns="http://www.w3.org/2000/svg" width="70" height="70" viewBox="0 0 70 70">
  <path id="spotify" d="M35,8A35,35,0,1,0,70,43,35.012,35.012,0,0,0,35,8ZM49.212,59.5a2.693,2.693,0,0,1-1.51-.508C38.9,53.683,28.649,53.458,18.53,55.532a9.113,9.113,0,0,1-1.679.367,2.2,2.2,0,0,1-2.23-2.23A2.236,2.236,0,0,1,16.54,51.3C28.1,48.744,39.911,48.97,49.988,55a2.387,2.387,0,0,1,1.369,2.329A2.132,2.132,0,0,1,49.212,59.5Zm3.8-9.258a3.485,3.485,0,0,1-1.736-.593C42.452,44.425,29.3,42.323,17.6,45.5a5.813,5.813,0,0,1-1.679.367,2.74,2.74,0,0,1-2.738-2.738,2.777,2.777,0,0,1,2.188-2.921,47.469,47.469,0,0,1,13.8-1.919,49.4,49.4,0,0,1,24.98,6.421,2.942,2.942,0,0,1,1.595,2.78A2.735,2.735,0,0,1,53.008,50.24Zm4.375-10.754a3.246,3.246,0,0,1-1.821-.55c-10.048-6-28.014-7.437-39.643-4.192a6.7,6.7,0,0,1-1.821.367A3.257,3.257,0,0,1,10.81,31.78a3.334,3.334,0,0,1,2.456-3.373,59.149,59.149,0,0,1,16.583-2.145c10.3,0,21.1,2.145,28.988,6.746a3.313,3.313,0,0,1,1.821,3.19A3.27,3.27,0,0,1,57.383,39.486Z" transform="translate(0 -8)"/>
</svg>
