<svg xmlns="http://www.w3.org/2000/svg" width="179.907" height="70" viewBox="0 0 179.907 70">
  <path id="wix" d="M110.581,131.546c0,3.663.585,9.189-8.062,12.321a13.969,13.969,0,0,0-4.484,2.715c0-8.714,1.327-11.868,4.891-13.735C105.667,131.411,110.581,131.546,110.581,131.546Zm-32.552,9.99L68.4,178.828,60.4,148.309c-2.162-8.993-5.85-13.642-13.614-13.642-7.694,0-11.43,4.548-13.614,13.642l-8.006,30.52-9.625-37.291c-1.56-7.511-8.832-10.758-15.539-9.915l18.432,69.694s6.08.439,9.125-1.113c4-2.038,5.9-3.609,8.318-13.091,2.156-8.453,8.183-33.286,8.748-35.054,1.338-4.2,3.117-3.882,4.329,0,.554,1.771,6.592,26.6,8.748,35.054,2.417,9.482,4.321,11.053,8.318,13.091,3.042,1.552,9.125,1.113,9.125,1.113l18.432-69.694c-6.865-.863-14,2.51-15.545,9.915ZM110.575,143a11.267,11.267,0,0,1-3.784,3.252c-1.689.945-3.311,1.585-5.051,2.42-4.256,2.041-3.7,3.921-3.7,9.895v42.748s4.652.588,7.694-.964c3.916-2,4.815-3.921,4.852-12.588V145.523l-.006,0V143Zm45.944,23.635,23.388-34.784s-9.87-1.681-14.758,2.769c-3.739,3.4-6.862,8.307-15.23,20.372-.132.205-1.757,2.963-3.674,0-8.234-11.871-11.469-16.948-15.23-20.372-4.888-4.45-14.758-2.769-14.758-2.769l23.388,34.784-23.323,34.677s10.28,1.3,15.166-3.151c3.23-2.94,4.942-5.726,14.761-19.88,1.914-2.957,3.533-.216,3.674,0,8.264,11.913,11.028,16.321,14.938,19.88,4.888,4.45,14.989,3.151,14.989,3.151l-23.329-34.677Z" transform="translate(0 -131.49)"/>
</svg>
